USFL
nRows=122
nColumns=2
inDegrees=yes
endheader
time	soleus_r	
3.25	 39.486713	
3.3125	 39.450363	
3.375	 39.450728	
3.4375	 39.487914	
3.5	 39.494630	
3.5625	 39.471479	
3.625	 39.522380	
3.6875	 39.490746	
3.75	 39.490866	
3.8125	 39.504884	
3.875	 39.516615	
3.9375	 39.474358	
4	 39.625268	
4.0625	 39.537204	
4.125	 39.545766	
4.1875	 39.569865	
4.25	 39.561739	
4.3125	 39.552447	
4.375	 39.548092	
4.4375	 39.536666	
4.5	 39.561049	
4.5625	 39.548021	
4.625	 39.503430	
4.6875	 39.538653	
4.75	 39.607113	
4.8125	 39.539974	
4.875	 39.560438	
4.9375	 39.658409	
5	 39.719038	
5.0625	 39.702933	
5.125	 39.578980	
5.1875	 36.697149	
5.25	 36.237136	
5.3125	 33.973947	
5.375	 30.314598	
5.4375	 25.673374	
5.5	 25.539167	
5.5625	 24.910062	
5.625	 24.977172	
5.6875	 25.022090	
5.75	 25.000586	
5.8125	 25.241555	
5.875	 24.749016	
5.9375	 24.673071	
6	 24.711638	
6.0625	 25.010483	
6.125	 25.056253	
6.1875	 25.183990	
6.25	 25.477422	
6.3125	 25.570767	
6.375	 25.393775	
6.4375	 25.394380	
6.5	 25.278937	
6.5625	 25.199630	
6.625	 25.268921	
6.6875	 25.096274	
6.75	 25.154909	
6.8125	 25.232243	
6.875	 25.171793	
6.9375	 25.380414	
7	 25.336989	
7.0625	 25.313455	
7.125	 25.311523	
7.1875	 25.228643	
7.25	 25.272056	
7.3125	 25.103394	
7.375	 25.024419	
7.4375	 24.987061	
7.5	 24.985099	
7.5625	 24.841823	
7.625	 24.767797	
7.6875	 24.751952	
7.75	 24.683859	
7.8125	 24.696665	
7.875	 24.592549	
7.9375	 24.529605	
8	 24.713467	
8.0625	 24.701433	
8.125	 24.685243	
8.1875	 24.733542	
8.25	 24.658406	
8.3125	 24.647192	
8.375	 24.607096	
8.4375	 24.554363	
8.5	 24.427699	
8.5625	 24.417223	
8.625	 24.293335	
8.6875	 24.203484	
8.75	 24.194265	
8.8125	 24.168254	
8.875	 24.056337	
8.9375	 24.008359	
9	 23.949978	
9.0625	 23.910138	
9.125	 23.725362	
9.1875	 23.408132	
9.25	 23.219164	
9.3125	 23.211332	
9.375	 23.512167	
9.4375	 23.623073	
9.5	 23.892299	
9.5625	 24.049786	
9.625	 23.965717	
9.6875	 23.989953	
9.75	 24.115837	
9.8125	 23.680047	
9.875	 23.211855	
9.9375	 23.117829	
10	 22.740581	
10.0625	 33.836516	
10.125	 34.232076	
10.1875	 33.969934	
10.25	 34.837831	
10.3125	 35.099918	
10.375	 35.104056	
10.4375	 35.308512	
10.5	 35.467626	
10.5625	 35.654444	
10.625	 35.447807	
10.6875	 35.491526	
10.75	 35.355838	
10.8125	 35.558136	
